# xmcd CD database file
#
# Track frame offsets:
#	150
#	18385
#	35120
#	53523
#	69735
#	90837
#	116759
#	134187
#	148967
#	173117
#	192650
#
# Disc length: 2866 seconds
#
# Revision: 1
# Processed by: cddbd v1.5.1PL2 Copyright (c) Steve Scherf et al.
# Submitted via: CDex 1.51
#
DISCID=a70b300b
DTITLE=Radio Caroline - All-Out
DYEAR=2005
DGENRE=Rock and Roll
TTITLE0=Good Times Roll
TTITLE1=Wild Stomp
TTITLE2=Mack Anna
TTITLE3=Get Star Romantic
TTITLE4=Time
TTITLE5=Boogie  So Mad
TTITLE6=Dog Night
TTITLE7=Raver
TTITLE8=So Fine
TTITLE9=Heavy
TTITLE10=Waltz
EXTD=YEAR: 2005
EXTT0=
EXTT1=
EXTT2=
EXTT3=
EXTT4=
EXTT5=
EXTT6=
EXTT7=
EXTT8=
EXTT9=
EXTT10=
PLAYORDER=
